<?xml version="1.0" encoding="UTF-8" standalone="no"?><!DOCTYPE svg PUBLIC "-//W3C//DTD SVG 1.1//EN" "http://www.w3.org/Graphics/SVG/1.1/DTD/svg11.dtd"><svg width="100%" height="100%" viewBox="0 0 1344 340" version="1.1" xmlns="http://www.w3.org/2000/svg" xmlns:xlink="http://www.w3.org/1999/xlink" xml:space="preserve" xmlns:serif="http://www.serif.com/" style="fill-rule:evenodd;clip-rule:evenodd;stroke-linejoin:round;stroke-miterlimit:2;"><g><rect x="145" y="285" width="1054" height="55" style="fill:#ddd;"/><path d="M0,143l145,142l0,55c-48.081,-48.081 -96.919,-95.919 -145,-144l0,-53Z" style="fill:#c4c4c4;fill-rule:nonzero;"/><path d="M1344,142l-145,143l0,55c48.26,-48.605 96.51,-97.209 144.77,-145.814l0.23,-52.186Z" style="fill:#c4c4c4;fill-rule:nonzero;"/><path d="M144.766,0l1053.964,0l145.27,142l-145,143l-1054,0c-48.034,-47.591 -96.966,-94.409 -145,-142l144.766,-143Z" style="fill:#ff4f4f;fill-rule:nonzero;"/><path d="M337.483,192l-27.647,0l62.383,-122.025l33.247,0l21.807,122.025l-27.646,0l-14.836,-94.14l-0.953,0l-46.355,94.14Zm6.315,-47.964l65.303,0l-3.456,20.139l-65.303,0l3.456,-20.139Zm149.172,-43.555l-3.158,19.067l-55.174,0l3.218,-19.067l55.114,0Zm-39.027,-21.926l25.382,0l-14.18,85.322c-0.398,2.344 -0.338,4.171 0.178,5.482c0.517,1.271 1.371,2.164 2.562,2.681c1.232,0.516 2.701,0.774 4.409,0.774c1.192,0 2.404,-0.099 3.635,-0.297c1.231,-0.239 2.165,-0.418 2.8,-0.537l0.954,18.888c-1.43,0.437 -3.357,0.914 -5.78,1.43c-2.383,0.516 -5.203,0.834 -8.461,0.953c-6.196,0.239 -11.439,-0.576 -15.729,-2.443c-4.29,-1.906 -7.369,-4.826 -9.236,-8.758c-1.867,-3.933 -2.264,-8.878 -1.191,-14.836l14.657,-88.659Zm97.528,21.926l-3.158,19.067l-55.173,0l3.217,-19.067l55.114,0Zm-39.026,-21.926l25.382,0l-14.181,85.322c-0.397,2.344 -0.337,4.171 0.179,5.482c0.516,1.271 1.37,2.164 2.562,2.681c1.231,0.516 2.701,0.774 4.409,0.774c1.192,0 2.403,-0.099 3.635,-0.297c1.231,-0.239 2.164,-0.418 2.8,-0.537l0.953,18.888c-1.43,0.437 -3.356,0.914 -5.779,1.43c-2.383,0.516 -5.204,0.834 -8.461,0.953c-6.196,0.239 -11.44,-0.576 -15.73,-2.443c-4.29,-1.906 -7.368,-4.826 -9.235,-8.758c-1.867,-3.933 -2.264,-8.878 -1.192,-14.836l14.658,-88.659Zm74.082,115.232c-9.374,0 -17.14,-1.906 -23.297,-5.719c-6.156,-3.853 -10.486,-9.295 -12.989,-16.326c-2.462,-7.07 -2.879,-15.432 -1.251,-25.084c1.589,-9.414 4.787,-17.676 9.593,-24.787c4.846,-7.11 10.923,-12.651 18.232,-16.623c7.309,-3.972 15.452,-5.958 24.429,-5.958c6.038,0 11.499,0.973 16.385,2.919c4.926,1.907 9.017,4.807 12.274,8.699c3.257,3.853 5.482,8.679 6.673,14.479c1.232,5.799 1.212,12.592 -0.059,20.377l-1.132,6.971l-77.219,0l2.443,-15.73l53.386,0c0.596,-3.654 0.357,-6.891 -0.715,-9.712c-1.073,-2.82 -2.86,-5.024 -5.363,-6.613c-2.502,-1.629 -5.581,-2.443 -9.235,-2.443c-3.734,0 -7.229,0.913 -10.487,2.741c-3.257,1.827 -5.997,4.23 -8.222,7.209c-2.185,2.94 -3.595,6.137 -4.23,9.593l-2.801,15.611c-0.794,4.806 -0.635,8.798 0.477,11.976c1.152,3.177 3.138,5.561 5.958,7.15c2.821,1.549 6.395,2.323 10.725,2.323c2.82,0 5.462,-0.397 7.925,-1.191c2.502,-0.795 4.726,-1.967 6.673,-3.516c1.946,-1.589 3.535,-3.555 4.766,-5.898l23.178,1.549c-2.145,5.64 -5.402,10.566 -9.772,14.776c-4.369,4.171 -9.632,7.428 -15.789,9.772c-6.117,2.304 -12.969,3.455 -20.556,3.455Zm86.58,-54.696l-8.818,52.909l-25.323,0l15.253,-91.519l24.131,0l-2.621,16.147l1.013,0c2.899,-5.362 6.991,-9.593 12.274,-12.691c5.322,-3.098 11.38,-4.647 18.172,-4.647c6.356,0 11.659,1.39 15.909,4.17c4.29,2.781 7.309,6.733 9.056,11.857c1.788,5.124 2.086,11.261 0.894,18.411l-9.772,58.272l-25.382,0l8.997,-53.743c0.914,-5.601 0.199,-9.971 -2.145,-13.109c-2.304,-3.177 -6.017,-4.766 -11.142,-4.766c-3.416,0 -6.554,0.735 -9.414,2.204c-2.86,1.47 -5.263,3.615 -7.209,6.435c-1.907,2.781 -3.198,6.137 -3.873,10.07Zm127.275,-38.61l-3.158,19.067l-55.173,0l3.217,-19.067l55.114,0Zm-39.027,-21.926l25.382,0l-14.18,85.322c-0.397,2.344 -0.338,4.171 0.179,5.482c0.516,1.271 1.37,2.164 2.562,2.681c1.231,0.516 2.701,0.774 4.409,0.774c1.191,0 2.403,-0.099 3.634,-0.297c1.232,-0.239 2.165,-0.418 2.801,-0.537l0.953,18.888c-1.43,0.437 -3.357,0.914 -5.78,1.43c-2.383,0.516 -5.203,0.834 -8.46,0.953c-6.197,0.239 -11.44,-0.576 -15.73,-2.443c-4.29,-1.906 -7.368,-4.826 -9.235,-8.758c-1.867,-3.933 -2.265,-8.878 -1.192,-14.836l14.657,-88.659Zm33.596,113.445l15.254,-91.519l25.382,0l-15.253,91.519l-25.383,0Zm30.566,-103.435c-3.773,0 -6.891,-1.251 -9.354,-3.754c-2.423,-2.542 -3.416,-5.561 -2.979,-9.056c0.437,-3.575 2.145,-6.594 5.124,-9.057c2.979,-2.502 6.355,-3.754 10.129,-3.754c3.773,0 6.852,1.251 9.235,3.754c2.383,2.463 3.376,5.482 2.979,9.057c-0.397,3.496 -2.085,6.514 -5.064,9.056c-2.94,2.502 -6.296,3.754 -10.07,3.754Zm49.907,105.222c-9.334,0 -17.06,-1.986 -23.177,-5.958c-6.118,-4.012 -10.427,-9.573 -12.93,-16.683c-2.463,-7.15 -2.919,-15.471 -1.37,-24.965c1.509,-9.374 4.647,-17.577 9.414,-24.607c4.766,-7.031 10.824,-12.493 18.172,-16.386c7.349,-3.932 15.631,-5.898 24.846,-5.898c9.295,0 17.001,2.006 23.118,6.017c6.117,3.973 10.427,9.534 12.93,16.684c2.502,7.149 2.979,15.471 1.43,24.965c-1.549,9.334 -4.727,17.517 -9.533,24.548c-4.807,7.03 -10.864,12.512 -18.173,16.444c-7.309,3.893 -15.551,5.839 -24.727,5.839Zm2.503,-19.662c4.29,0 8.083,-1.211 11.38,-3.634c3.336,-2.463 6.097,-5.8 8.282,-10.01c2.224,-4.25 3.773,-9.057 4.647,-14.419c0.874,-5.283 0.934,-9.97 0.179,-14.062c-0.755,-4.131 -2.344,-7.388 -4.767,-9.771c-2.383,-2.383 -5.66,-3.575 -9.831,-3.575c-4.29,0 -8.103,1.231 -11.44,3.694c-3.336,2.423 -6.097,5.76 -8.282,10.01c-2.184,4.25 -3.713,9.076 -4.587,14.478c-0.835,5.244 -0.894,9.931 -0.179,14.062c0.715,4.091 2.284,7.329 4.707,9.712c2.423,2.343 5.72,3.515 9.891,3.515Zm86.535,-35.034l-8.818,52.909l-25.323,0l15.253,-91.519l24.131,0l-2.622,16.147l1.013,0c2.9,-5.362 6.991,-9.593 12.274,-12.691c5.323,-3.098 11.381,-4.647 18.173,-4.647c6.357,0 11.657,1.39 15.907,4.17c4.29,2.781 7.31,6.733 9.06,11.857c1.79,5.124 2.08,11.261 0.89,18.411l-9.77,58.272l-25.382,0l8.997,-53.743c0.914,-5.601 0.199,-9.971 -2.145,-13.109c-2.304,-3.177 -6.018,-4.766 -11.142,-4.766c-3.416,0 -6.554,0.735 -9.414,2.204c-2.86,1.47 -5.263,3.615 -7.209,6.435c-1.907,2.781 -3.198,6.137 -3.873,10.07Zm113.808,-69.116l-16.44,85.441l-21.69,0l11.74,-85.441l26.39,0Zm-32.11,123.574c-4.02,0 -7.31,-1.39 -9.89,-4.171c-2.55,-2.78 -3.7,-6.156 -3.46,-10.129c0.28,-3.932 1.93,-7.249 4.94,-9.95c3.06,-2.741 6.58,-4.111 10.55,-4.111c3.81,0 7.03,1.37 9.65,4.111c2.62,2.741 3.78,6.058 3.46,9.95c-0.2,2.622 -1.05,5.025 -2.56,7.21c-1.47,2.145 -3.34,3.873 -5.6,5.184c-2.27,1.271 -4.63,1.906 -7.09,1.906Z" style="fill:#fff;fill-rule:nonzero;"/></g></svg>