<?xml version="1.0" encoding="UTF-8" standalone="no"?><!DOCTYPE svg PUBLIC "-//W3C//DTD SVG 1.1//EN" "http://www.w3.org/Graphics/SVG/1.1/DTD/svg11.dtd"><svg width="100%" height="100%" viewBox="0 0 1050 160" version="1.1" xmlns="http://www.w3.org/2000/svg" xmlns:xlink="http://www.w3.org/1999/xlink" xml:space="preserve" xmlns:serif="http://www.serif.com/" style="fill-rule:evenodd;clip-rule:evenodd;stroke-linejoin:round;stroke-miterlimit:2;"><g><path d="M23.374,0l63.098,0c6.907,0 12.911,2.002 18.013,6.006c5.102,4.004 8.837,9.361 11.205,16.071c2.368,6.71 2.944,14.181 1.728,22.411l-10.29,69.624c-1.194,8.082 -3.965,15.46 -8.311,22.133c-4.346,6.673 -9.659,11.993 -15.939,15.96c-6.28,3.967 -12.873,5.95 -19.78,5.95l-63.098,0l23.374,-158.155Zm43.192,134.688c4.978,0 9.511,-2.039 13.598,-6.117c4.087,-4.078 6.558,-9.009 7.413,-14.792l10.241,-69.29c0.866,-5.858 -0.14,-10.844 -3.016,-14.959c-2.876,-4.115 -6.804,-6.173 -11.782,-6.173l-43.404,0l-16.454,111.331l43.404,0Zm55.011,-50.383c1.129,-7.637 3.724,-14.57 7.787,-20.798c4.063,-6.228 9.015,-11.215 14.858,-14.959c5.842,-3.744 11.968,-5.617 18.377,-5.617l49.283,0l-17.029,115.224l-19.694,0l13.561,-91.757l-29.589,0c-4.169,0 -8.007,1.761 -11.515,5.283c-3.507,3.522 -5.634,7.804 -6.379,12.846l-4.701,31.809c-0.745,5.042 0.11,9.361 2.565,12.957c2.455,3.596 5.767,5.394 9.937,5.394l18.389,0l-3.468,23.467l-18.389,0c-6.409,0 -11.982,-1.872 -16.717,-5.617c-4.736,-3.744 -8.209,-8.768 -10.42,-15.07c-2.211,-6.302 -2.752,-13.272 -1.623,-20.909l4.767,-32.254Zm98.527,-41.374l12.6,0l6.345,-42.931l19.694,0l-6.345,42.931l29.774,0l-3.468,23.467l-29.774,0l-8.728,59.058c-0.373,2.521 0.131,4.69 1.512,6.506c1.38,1.817 3.222,2.725 5.524,2.725l24.174,0l-3.468,23.467l-24.454,0c-5.102,0 -9.537,-1.464 -13.305,-4.393c-3.767,-2.929 -6.547,-6.859 -8.338,-11.789c-1.791,-4.931 -2.243,-10.399 -1.356,-16.405l8.745,-59.169l-12.6,0l3.468,-23.467Zm63.243,41.374c1.129,-7.637 3.724,-14.57 7.787,-20.798c4.063,-6.228 9.015,-11.215 14.858,-14.959c5.842,-3.744 11.968,-5.617 18.377,-5.617l49.283,0l-17.029,115.224l-19.694,0l13.561,-91.757l-29.589,0c-4.169,0 -8.007,1.761 -11.515,5.283c-3.507,3.522 -5.634,7.804 -6.379,12.846l-4.701,31.809c-0.745,5.042 0.11,9.361 2.565,12.957c2.455,3.596 5.767,5.394 9.937,5.394l18.389,0l-3.468,23.467l-18.389,0c-6.409,0 -11.982,-1.872 -16.717,-5.617c-4.736,-3.744 -8.209,-8.768 -10.42,-15.07c-2.211,-6.302 -2.752,-13.272 -1.623,-20.909l4.767,-32.254Zm101.053,-39.817c1.216,-8.23 4.032,-15.701 8.446,-22.411c4.414,-6.71 9.779,-12.067 16.096,-16.071c6.316,-4.004 12.959,-6.006 19.928,-6.006l49.007,0l-3.452,23.356l-49.007,0c-5.04,0 -9.638,2.058 -13.793,6.173c-4.155,4.115 -6.665,9.102 -7.531,14.959l-10.29,69.624c-0.833,5.635 0.226,10.473 3.175,14.514c2.95,4.041 6.944,6.062 11.985,6.062l49.007,0l-3.468,23.467l-49.007,0c-6.969,0 -13.026,-1.965 -18.17,-5.895c-5.144,-3.93 -8.937,-9.213 -11.378,-15.849c-2.442,-6.636 -3.071,-13.958 -1.887,-21.966l10.339,-69.958Zm87.923,22.244c0.975,-6.599 3.828,-12.216 8.557,-16.85c4.729,-4.634 9.925,-6.951 15.588,-6.951l34.723,0c5.165,0 9.625,1.501 13.381,4.504c3.756,3.003 6.519,7.044 8.289,12.123c1.769,5.079 2.199,10.696 1.29,16.85l-0.477,3.225c-0.899,6.08 -2.978,11.623 -6.238,16.627c-3.26,5.005 -7.212,9.009 -11.856,12.012c-4.644,3.003 -9.548,4.504 -14.713,4.504l-24.456,0l3.452,-23.356l24.642,0c2.24,0 4.296,-0.964 6.168,-2.892c1.872,-1.928 3.01,-4.263 3.416,-7.007l0.46,-3.114c0.416,-2.818 -0.026,-5.19 -1.328,-7.118c-1.302,-1.928 -3.073,-2.892 -5.313,-2.892l-35.843,0l-8.745,59.169c-0.373,2.521 0.025,4.671 1.193,6.451c1.168,1.78 2.779,2.669 4.832,2.669l56.842,0l-3.468,23.467l-56.842,0c-4.978,0 -9.304,-1.464 -12.978,-4.393c-3.674,-2.929 -6.36,-6.859 -8.058,-11.789c-1.698,-4.931 -2.109,-10.362 -1.232,-16.294l8.712,-58.947Zm93.367,-0.445c0.953,-6.451 3.712,-11.956 8.275,-16.516c4.563,-4.56 9.582,-6.84 15.058,-6.84l26.603,0c6.409,0 11.982,1.872 16.717,5.617c4.736,3.744 8.209,8.768 10.42,15.07c2.211,6.302 2.752,13.272 1.623,20.909l-10.882,73.628l-19.694,0l10.832,-73.294c0.767,-5.19 -0.059,-9.602 -2.477,-13.235c-2.419,-3.633 -5.744,-5.45 -9.975,-5.45l-26.79,0l-13.594,91.979l-19.694,0l13.577,-91.868Zm89.287,-23.356l12.6,0l6.345,-42.931l19.694,0l-6.345,42.931l29.774,0l-3.468,23.467l-29.774,0l-8.728,59.058c-0.373,2.521 0.131,4.69 1.512,6.506c1.38,1.817 3.222,2.725 5.524,2.725l21.374,0l-3.468,23.467l-21.654,0c-5.102,0 -9.537,-1.464 -13.305,-4.393c-3.767,-2.929 -6.547,-6.859 -8.338,-11.789c-1.791,-4.931 -2.243,-10.399 -1.356,-16.405l8.745,-59.169l-12.6,0l3.468,-23.467Zm68.685,23.801c0.975,-6.599 3.828,-12.216 8.557,-16.85c4.729,-4.634 9.925,-6.951 15.588,-6.951l34.723,0c5.165,0 9.625,1.501 13.381,4.504c3.756,3.003 6.519,7.044 8.289,12.123c1.769,5.079 2.199,10.696 1.29,16.85l-0.477,3.225c-0.899,6.08 -2.978,11.623 -6.238,16.627c-3.26,5.005 -7.212,9.009 -11.856,12.012c-4.644,3.003 -9.548,4.504 -14.713,4.504l-24.456,0l3.452,-23.356l24.642,0c2.24,0 4.296,-0.964 6.168,-2.892c1.872,-1.928 3.01,-4.263 3.416,-7.007l0.46,-3.114c0.416,-2.818 -0.026,-5.19 -1.328,-7.118c-1.302,-1.928 -3.073,-2.892 -5.313,-2.892l-35.843,0l-8.745,59.169c-0.373,2.521 0.025,4.671 1.193,6.451c1.168,1.78 2.779,2.669 4.832,2.669l58.708,0l-3.468,23.467l-58.708,0c-4.978,0 -9.304,-1.464 -12.978,-4.393c-3.674,-2.929 -6.36,-6.859 -8.058,-11.789c-1.698,-4.931 -2.109,-10.362 -1.232,-16.294l8.712,-58.947Zm93.964,8.453c0.877,-5.932 2.937,-11.344 6.18,-16.238c3.243,-4.894 7.179,-8.786 11.806,-11.678c4.628,-2.892 9.493,-4.338 14.595,-4.338l31.825,0l-3.452,23.356l-31.825,0c-2.24,0 -4.288,0.908 -6.143,2.725c-1.855,1.817 -2.975,4.022 -3.358,6.618l-12.197,82.525l-19.694,0l12.262,-82.97Z" style="fill:#00448a;"/><path d="M854.057,146.777c0,-3.459 1.136,-6.405 3.407,-8.839c2.271,-2.434 5.021,-3.651 8.248,-3.651c3.287,0 6.052,1.201 8.293,3.603c2.241,2.402 3.362,5.364 3.362,8.887c0,3.523 -1.121,6.485 -3.362,8.887c-2.241,2.402 -5.006,3.603 -8.293,3.603c-3.228,0 -5.977,-1.217 -8.248,-3.651c-2.271,-2.434 -3.407,-5.381 -3.407,-8.839Z" style="fill:#ad0009;fill-rule:nonzero;"/><path d="M906.843,121.763l-5.379,36.392l-15.713,0l13.575,-91.853l61.949,0l-2.753,18.63l-46.236,0l-2.69,18.201l46.236,0l-2.753,18.63l-46.236,0Zm66.169,-55.461l14.373,0l17.577,41.792l29.93,-41.792l14.373,0l-13.575,91.853l-15.713,0l8.868,-60.005l-20.293,29.993l-13.032,0l-11.501,-29.993l-8.868,60.005l-15.713,0l13.575,-91.853Z" style="fill:#ad0009;"/></g></svg>