<?xml version="1.0" encoding="UTF-8" standalone="no"?><!DOCTYPE svg PUBLIC "-//W3C//DTD SVG 1.1//EN" "http://www.w3.org/Graphics/SVG/1.1/DTD/svg11.dtd"><svg width="100%" height="100%" viewBox="0 0 667 867" version="1.1" xmlns="http://www.w3.org/2000/svg" xmlns:xlink="http://www.w3.org/1999/xlink" xml:space="preserve" xmlns:serif="http://www.serif.com/" style="fill-rule:evenodd;clip-rule:evenodd;stroke-linejoin:round;stroke-miterlimit:2;"><g><path d="M627.018,866.219l-508.986,0c0,0 -9.994,-0.595 -15.246,-2.464c-21.149,-7.524 -38.89,-25.43 -46.982,-45.473c-2.199,-5.446 -4.212,-11.231 -4.814,-17.241c-14.904,-150.364 -12.616,-301.125 -5.467,-451.528c2.902,-61.049 6.733,-122.072 11.131,-183.046c0.002,-0.021 0.471,-6.521 0.474,-6.537c0.115,-0.715 0.416,-1.387 0.625,-2.081l1.448,-1.62l1.999,-0.852l2.171,0.076l323.521,83.968l1.651,-55.781l0.141,-2.128l1.015,-1.875l1.705,-1.282l2.084,-0.455l81.781,0l2.102,0.463c0.571,0.435 1.142,0.869 1.712,1.304l1.006,1.903l0.113,2.149l-12.719,76.62l30.572,7.935l64.828,-86.286l1.307,-1.222c1.728,-0.715 3.58,-1.032 5.136,-0.167c0.521,0.29 0.922,0.757 1.383,1.135l94.988,110.939c1.237,2.132 1.475,4.792 -0.057,6.536c-0.39,0.444 -0.924,0.735 -1.387,1.102l-120.934,65.072l19.199,406.863l66.794,34.468c0.478,0.37 1.031,0.66 1.434,1.11c1.105,1.236 0.987,1.784 1.273,3.333l0,50.061l-0.381,1.913l-1.084,1.622l-1.622,1.084l-1.913,0.381Z" style="fill-rule:nonzero;"/><g><path d="M449.331,280.978l-58.948,-21.227l-13.897,-92.85l91.781,0l-18.937,114.077m110.565,-113.008l94.988,111.939l-184.478,99.264l0,-90.712l89.49,-120.491" style="fill:#b1c926;fill-rule:nonzero;"/><path d="M550.659,765.741l69.359,36.06l0,43.419l-512.905,0c-21.922,-0.6 -55.042,-30.1 -57.756,-56.767c-16.934,-166.431 -14.591,-364.703 5.756,-644.16l472.364,122.6l23.181,498.848" style="fill:#b1c926;fill-rule:nonzero;"/></g><path d="M0,186.9l10.676,-44.267l120.545,-36.57l26.803,35.419l-24.369,52.335l-82.325,25.688l-51.331,-32.605" style="fill-rule:nonzero;"/><path d="M93.154,338.066l5.71,-52.014l184.391,-19.751l20.383,38.186l-23.056,217.703l-142.962,23.043l-43.466,-201.166" style="fill-rule:nonzero;"/><path d="M177.523,367.472l-94.696,33.577l-1.336,-124.213l66.631,-18.215l29.401,108.851m9.719,-117.141l61.285,-6.145l25.392,131.675l-86.677,15.362l0,-140.892m75.622,213.703l-6.873,68.69l-19.856,3.072l-5.346,-56.62l32.074,-15.143m-50.593,90.417l-20.046,0l-14.701,-75.274l38.756,0l-4.009,75.274m-45.439,8.998l-22.528,0l-19.092,-64.74l37.611,-17.996l4.009,82.736" style="fill:#fff;fill-rule:nonzero;"/><path d="M480.38,303.991c15.209,15.086 22.813,33.423 22.813,55.009c0,21.464 -7.604,39.8 -22.813,55.009c-15.086,15.086 -33.423,22.629 -55.009,22.629c-21.464,0 -39.739,-7.543 -54.825,-22.629c-15.209,-15.209 -22.813,-33.545 -22.813,-55.009c0,-21.587 7.604,-39.923 22.813,-55.009c15.086,-15.209 33.361,-22.813 54.825,-22.813c21.587,0 39.923,7.604 55.009,22.813" style="fill:#fff;fill-rule:nonzero;"/><path d="M465.658,298.746c0.614,0.278 0.985,0.435 1.441,1.438c0.981,1.741 1.675,3.523 2.057,5.348c0.19,0.907 0.17,1.014 0.16,1.381c-0.079,3.009 -0.941,6.436 -3.822,7.912c-0.092,0.047 -0.19,0.083 -0.286,0.125c-1.905,1.461 -3.356,1.876 -4.525,1.646c-0.143,0.044 -0.245,0.097 -0.712,0.146c-12.25,-1.103 -21.838,-0.711 -28.008,1.6c-6.85,1.482 -16.901,11.716 -19.574,24.245c-2.088,9.79 0.298,20.331 7.1,28.249c5.27,6.135 13.524,8.874 22.265,8.281c7.325,-0.496 14.718,-3.533 18.844,-10.266c0.804,-1.217 0.975,-1.551 1.384,-2.352c1.519,-2.975 2.294,-6.307 2.338,-9.672c0.515,-0.523 -0.619,-9.041 -1.107,-8.542c-4.336,-4.054 -11.514,-4.11 -18.373,-4.357c-3.621,-0.211 -7.483,4.774 -4.435,4.951c0.503,0.029 0.954,0.321 1.431,0.485c4.801,1.662 10.382,3.33 12.654,6.671c0,0 0.66,0.882 0.304,2.196c0.031,2.193 -0.617,4.257 -2.057,6.171c-0.486,1.223 -0.619,1.298 -1.81,1.645c-3.472,1.557 -7.042,2.343 -10.696,2.468c-0.957,0.164 -1.021,0.063 -1.427,0.055c-6.808,-0.161 -14.297,-2.283 -17.201,-9.394c-1.177,-2.882 -0.785,-9.286 -0.357,-13.825c1.27,-13.464 14.362,-22.582 29.881,-22.04c13.25,0.463 27.452,5.086 31.698,18.54c1.59,5.036 0.786,19.83 0.543,21.972c-1.685,14.875 -11.176,29.412 -26.521,34.21c-7.798,2.438 -16.221,2.635 -24.298,1.819c-14.493,-1.464 -29.099,-8.49 -35.88,-22.672c-4.758,-9.951 -5.023,-21.534 -4.114,-33.115c0.768,-9.78 3.67,-19.358 9.272,-27.551c4.793,-6.724 11.395,-11.978 19.066,-15.217c12.284,-5.187 26.082,-5.394 39.209,-3.937l0.331,0.059l4.937,1.234c0.095,0.03 0.19,0.06 0.286,0.09Z" style="fill-rule:nonzero;"/><path d="M142.621,598.392l20.421,149.215l16.006,-139.181l33.116,0l15.086,142.258l22.237,-156.248l33.324,13.016l-30.677,197.807l-41.098,2l-16.902,-101.357l-22.525,99.476l-35.451,-3.077l-36.404,-193.996l40.867,-9.913m151.941,61.703l0,-37.774l101.739,-9.913l0,36.748l-36.427,3.931l0,156.222l-29.988,0l0,-152.975l-35.324,3.76m-209.687,145.625l-9.567,-36.064l31.092,-10.597l8.647,38.457l-30.172,8.204m432.483,-194.338l-79.294,9.913l0,99.466l53.971,-5.982l0,28.886l-53.971,0l0,59.663l-29.988,1.026l0,-215.874l109.282,-9.913l0,32.817" style="fill:#fff;fill-rule:nonzero;"/><path d="M594.916,44.032l-39.222,0.881l-6.66,16.557l-23.492,-6.673l-0.716,-36.181l100.26,5.625l-4.821,90.866l-61.752,-8.181l-15.791,39.258l-29.7,-11.946l31.893,-45.274l47.832,-1.582l2.167,-43.35m-100.636,136.804l10.092,-25.091l30.894,12.427l-10.573,26.286l-30.414,-13.621" style="fill-rule:nonzero;"/><path d="M499.016,4.771l-21.379,96.965l-25.844,-3.411l10.259,-98.326m-20.279,144.197l4.294,-26.702l30.554,2.53l-3.817,29.212l-31.031,-5.041" style="fill-rule:nonzero;"/></g></svg>